<svg id="Layer_1" data-name="Layer 1" xmlns="http://www.w3.org/2000/svg" xmlns:xlink="http://www.w3.org/1999/xlink" viewBox="0 0 620.62 197.08"><defs><style>.cls-1{fill:#530753;}.cls-2{fill:url(#linear-gradient);}.cls-3{fill:#98730b;}</style><linearGradient id="linear-gradient" x1="47.75" y1="123.12" x2="537.13" y2="123.12" gradientUnits="userSpaceOnUse"><stop offset="0.4" stop-color="#530753"/><stop offset="0.96" stop-color="#98730b"/></linearGradient></defs><path class="cls-1" d="M98.26,136l26.21,6.32q12,2.84,16.73,6.15a10.85,10.85,0,0,1,3.68,4.27c8-6.87,14.86-17.66,23.19-33q-10.33-6.21-26.55-10l-26.84-6q-10.11-2.53-14.05-5.69a10.33,10.33,0,0,1-3.95-8.52q0-7.26,6.64-11.37t18.31-4.1a75.54,75.54,0,0,1,24.78,4.42,103.54,103.54,0,0,1,25.1,12.94l13.27-31.89A108.34,108.34,0,0,0,121.94,39.7q-20.52,0-36,6.63T61.8,64.49a42.58,42.58,0,0,0-8.69,26.36q0,18.32,10.9,29.37T98.26,136Z" transform="translate(-47.75 -9.46)"/><path class="cls-1" d="M300.65,109.8l-26.84-6q-10.11-2.53-14.05-5.69A10,10,0,0,1,256.28,93c-11.26,6.86-21.58,17.57-29.23,30.68Q237.86,132,257.39,136l26.21,6.32q12,2.84,16.73,6.15a10.72,10.72,0,0,1,4.74,9.32q0,6.94-6.63,10.89t-18.94,3.95a104.38,104.38,0,0,1-31.42-4.9,97.08,97.08,0,0,1-28.26-14l-12.94,33.16q26.52,19.57,72.3,19.57,31.89,0,50-13.26t18.16-36q0-18.94-11.05-30.31T300.65,109.8Z" transform="translate(-47.75 -9.46)"/><path class="cls-2" d="M490.09,43.81V66.25a48.13,48.13,0,0,0-16.42-17.07q-14.84-9.48-34.1-9.48-20.83,0-36.78,10.58T377.85,80c-.76,1.6-1.45,3.25-2.1,4.92,6.22,8.8,11.69,17.93,17.09,26.94,7.84,13.1,15.34,25.6,24.52,35.48,1.36,1.46,2.75,2.87,4.19,4.2q-5.34-10.81-5.34-27.5,0-22.41,9.94-35c9.49-12,27.15-16.12,41.21-10.17,17.87,7.55,22.73,26.86,22.73,44.58,0,12.85-2,27.15-11.46,36.67-8.81,8.89-21.73,11.63-33.84,10a55.83,55.83,0,0,1-26.88-11.81c-20.42-16.07-31.86-42.42-45.3-64-20.17-32.41-53.67-55.59-92.8-54.36a96.71,96.71,0,0,0-48.69,14.93C214.67,65.28,201.29,80,190.54,96.07c-11.39,17.08-18.79,36.65-31.43,52.91-7.78,10-18.09,18.42-30.49,21.85-18.26,5-39.95-1.5-56.32-10-1.14-.59-11.92-6.26-11.61-7.19L47.75,186.84q22.11,16.32,57.64,19c15.8,1.21,31,1.17,46.06-4.61,39.4-15.11,50.72-55.32,72.66-87.18A99.12,99.12,0,0,1,244.5,91.77c18.15-14.14,42.91-18.28,63.8-7.66,16.56,8.42,28.05,23.72,37.93,39,10.77,16.6,20.21,34.12,32.58,49.64,11.37,14.28,24.48,26.52,42.51,31.39,17.47,4.71,36.83,2.74,52.35-6.84a46.09,46.09,0,0,0,16.42-16.95v23.59h47V43.81Z" transform="translate(-47.75 -9.46)"/><path class="cls-3" d="M641.72,44a57.29,57.29,0,0,1-57.22,57.23h0v26.64h49.33V93.33h34.53V44Z" transform="translate(-47.75 -9.46)"/><path class="cls-3" d="M633.83,44V9.46H584.5V44H550V93.33H584.5A49.34,49.34,0,0,0,633.83,44Z" transform="translate(-47.75 -9.46)"/></svg>